<?xml version="1.0" encoding="UTF-8"?>
<svg width="595px" height="842px" viewBox="0 0 595 842" version="1.1" xmlns="http://www.w3.org/2000/svg" xmlns:xlink="http://www.w3.org/1999/xlink">
    <!-- Generator: Sketch 53.2 (72643) - https://sketchapp.com -->
    <title>A4</title>
    <desc>Created with Sketch.</desc>
    <defs>
        <filter x="-15.6%" y="-21.0%" width="131.2%" height="142.1%" filterUnits="objectBoundingBox" id="filter-1">
            <feGaussianBlur stdDeviation="7.5" in="SourceGraphic"></feGaussianBlur>
        </filter>
        <filter x="-15.6%" y="-21.0%" width="131.2%" height="142.1%" filterUnits="objectBoundingBox" id="filter-2">
            <feGaussianBlur stdDeviation="7.5" in="SourceGraphic"></feGaussianBlur>
        </filter>
        <filter x="-11.9%" y="-25.9%" width="123.8%" height="151.7%" filterUnits="objectBoundingBox" id="filter-3">
            <feGaussianBlur stdDeviation="7.5" in="SourceGraphic"></feGaussianBlur>
        </filter>
        <filter x="-11.9%" y="-25.9%" width="123.8%" height="151.7%" filterUnits="objectBoundingBox" id="filter-4">
            <feGaussianBlur stdDeviation="7.5" in="SourceGraphic"></feGaussianBlur>
        </filter>
        <filter x="-15.6%" y="-21.1%" width="131.2%" height="142.3%" filterUnits="objectBoundingBox" id="filter-5">
            <feGaussianBlur stdDeviation="5 0" in="SourceGraphic"></feGaussianBlur>
        </filter>
        <filter x="-15.6%" y="-21.1%" width="131.2%" height="142.3%" filterUnits="objectBoundingBox" id="filter-6">
            <feGaussianBlur stdDeviation="5 0" in="SourceGraphic"></feGaussianBlur>
        </filter>
        <filter x="-8.1%" y="-15.5%" width="116.2%" height="131.0%" filterUnits="objectBoundingBox" id="filter-7">
            <feGaussianBlur stdDeviation="3 0" in="SourceGraphic"></feGaussianBlur>
        </filter>
        <filter x="-8.1%" y="-15.5%" width="116.2%" height="131.0%" filterUnits="objectBoundingBox" id="filter-8">
            <feGaussianBlur stdDeviation="3 0" in="SourceGraphic"></feGaussianBlur>
        </filter>
        <rect id="path-9" x="0" y="0" width="394" height="226"></rect>
        <filter x="-7.4%" y="-11.5%" width="114.7%" height="126.5%" filterUnits="objectBoundingBox" id="filter-10">
            <feMorphology radius="1.5" operator="erode" in="SourceAlpha" result="shadowSpreadOuter1"></feMorphology>
            <feOffset dx="0" dy="5" in="shadowSpreadOuter1" result="shadowOffsetOuter1"></feOffset>
            <feGaussianBlur stdDeviation="3" in="shadowOffsetOuter1" result="shadowBlurOuter1"></feGaussianBlur>
            <feColorMatrix values="0 0 0 0 0   0 0 0 0 0   0 0 0 0 0  0 0 0 0.2 0" type="matrix" in="shadowBlurOuter1" result="shadowMatrixOuter1"></feColorMatrix>
            <feMorphology radius="1" operator="dilate" in="SourceAlpha" result="shadowSpreadOuter2"></feMorphology>
            <feOffset dx="0" dy="3" in="shadowSpreadOuter2" result="shadowOffsetOuter2"></feOffset>
            <feGaussianBlur stdDeviation="8" in="shadowOffsetOuter2" result="shadowBlurOuter2"></feGaussianBlur>
            <feColorMatrix values="0 0 0 0 0   0 0 0 0 0   0 0 0 0 0  0 0 0 0.12 0" type="matrix" in="shadowBlurOuter2" result="shadowMatrixOuter2"></feColorMatrix>
            <feMorphology radius="0.5" operator="dilate" in="SourceAlpha" result="shadowSpreadOuter3"></feMorphology>
            <feOffset dx="0" dy="9" in="shadowSpreadOuter3" result="shadowOffsetOuter3"></feOffset>
            <feGaussianBlur stdDeviation="6" in="shadowOffsetOuter3" result="shadowBlurOuter3"></feGaussianBlur>
            <feColorMatrix values="0 0 0 0 0   0 0 0 0 0   0 0 0 0 0  0 0 0 0.14 0" type="matrix" in="shadowBlurOuter3" result="shadowMatrixOuter3"></feColorMatrix>
            <feMerge>
                <feMergeNode in="shadowMatrixOuter1"></feMergeNode>
                <feMergeNode in="shadowMatrixOuter2"></feMergeNode>
                <feMergeNode in="shadowMatrixOuter3"></feMergeNode>
            </feMerge>
        </filter>
        <filter x="-3.2%" y="-31.3%" width="105.8%" height="152.8%" filterUnits="objectBoundingBox" id="filter-11">
            <feGaussianBlur stdDeviation="1.75" in="SourceGraphic"></feGaussianBlur>
        </filter>
        <filter x="-23.1%" y="-99.3%" width="146.1%" height="298.6%" filterUnits="objectBoundingBox" id="filter-12">
            <feOffset dx="0" dy="1" in="SourceAlpha" result="shadowOffsetOuter1"></feOffset>
            <feGaussianBlur stdDeviation="9" in="shadowOffsetOuter1" result="shadowBlurOuter1"></feGaussianBlur>
            <feColorMatrix values="0 0 0 0 0   0 0 0 0 0   0 0 0 0 0  0 0 0 0.12 0" type="matrix" in="shadowBlurOuter1" result="shadowMatrixOuter1"></feColorMatrix>
            <feOffset dx="0" dy="6" in="SourceAlpha" result="shadowOffsetOuter2"></feOffset>
            <feGaussianBlur stdDeviation="5" in="shadowOffsetOuter2" result="shadowBlurOuter2"></feGaussianBlur>
            <feColorMatrix values="0 0 0 0 0   0 0 0 0 0   0 0 0 0 0  0 0 0 0.14 0" type="matrix" in="shadowBlurOuter2" result="shadowMatrixOuter2"></feColorMatrix>
            <feMorphology radius="0.5" operator="erode" in="SourceAlpha" result="shadowSpreadOuter3"></feMorphology>
            <feOffset dx="0" dy="3" in="shadowSpreadOuter3" result="shadowOffsetOuter3"></feOffset>
            <feGaussianBlur stdDeviation="2.5" in="shadowOffsetOuter3" result="shadowBlurOuter3"></feGaussianBlur>
            <feColorMatrix values="0 0 0 0 0   0 0 0 0 0   0 0 0 0 0  0 0 0 0.2 0" type="matrix" in="shadowBlurOuter3" result="shadowMatrixOuter3"></feColorMatrix>
            <feMerge>
                <feMergeNode in="shadowMatrixOuter1"></feMergeNode>
                <feMergeNode in="shadowMatrixOuter2"></feMergeNode>
                <feMergeNode in="shadowMatrixOuter3"></feMergeNode>
                <feMergeNode in="SourceGraphic"></feMergeNode>
            </feMerge>
        </filter>
    </defs>
    <g id="A4" stroke="none" stroke-width="1" fill="none" fill-rule="evenodd">
        <g id="BG" transform="translate(0.000000, 0.000000)">
            <polygon id="路径" fill="#000000" points="1.98951966e-12 0 1.99261614e-12 588.6875 595 254 595 0"></polygon>
            <polygon id="路径" fill="#DE325E" transform="translate(297.500000, 548.000000) rotate(-180.000000) translate(-297.500000, -548.000000) " points="6.605827e-13 254 7.9269924e-13 842 595 507.3125 595 254"></polygon>
        </g>
        <g id="Text" transform="translate(219.000000, 94.000000)" fill="#FFFFFF" font-weight="bold">
            <g id="996">
                <g font-size="72">
                    <text id="工作" filter="url(#filter-2)" font-family="NotoSansCJKsc-Bold, Noto Sans CJK SC">
                        <tspan x="13.5" y="84">工作</tspan>
                    </text>
                    <text filter="url(#filter-4)" font-family="ProductSans-Bold, Product Sans" letter-spacing="22.5">
                        <tspan x="0.126" y="163.5">996</tspan>
                    </text>
                </g>
                <g transform="translate(30.000000, 28.500000)" font-size="48">
                    <text id="工作" filter="url(#filter-6)" font-family="NotoSansCJKsc-Bold, Noto Sans CJK SC">
                        <tspan x="7.5" y="56">工作</tspan>
                    </text>
                    <text filter="url(#filter-8)" font-family="ProductSans-Bold, Product Sans" letter-spacing="15">
                        <tspan x="0.084" y="112">99</tspan>
                        <tspan x="83.652" y="112">6</tspan>
                    </text>
                </g>
            </g>
            <g id="ICU" transform="translate(27.000000, 477.000000)" font-size="48">
                <text id="生病" font-family="NotoSerifCJKsc-Bold, Noto Serif CJK SC">
                    <tspan x="9.5" y="55.5">生病</tspan>
                </text>
                <text font-family="PlayfairDisplay-Bold, Playfair Display" letter-spacing="15">
                    <tspan x="0.212" y="122">IC</tspan>
                    <tspan x="81.716" y="122">U</tspan>
                </text>
            </g>
        </g>
        <g id="Display" transform="translate(101.000000, 309.000000)">
            <g id="矩形">
                <use fill="black" fill-opacity="1" filter="url(#filter-10)" xlink:href="#path-9"></use>
                <use fill="#FFFFFF" fill-rule="evenodd" xlink:href="#path-9"></use>
            </g>
            <polygon id="路径" fill="#000000" transform="translate(197.000000, 113.000000) rotate(-180.000000) translate(-197.000000, -113.000000) " points="3.50222222 3.50387597 3.50222222 222.496124 390.497778 3.50387597"></polygon>
            <g id="Line" transform="translate(187.368889, 84.093023)">
                <polyline id="路径-2" stroke="#5BCE5F" stroke-width="2.625" filter="url(#filter-11)" points="0 25.876586 3.58387804 47.0931709 5.6145855 29.809892 11.7105556 29.809892 16.1952127 6.5599299 22.9016775 52.89561 29.6273806 29.809892 37.0601975 29.809892 38.7245226 24.4377385 42.2771918 37.3753899 44.4998546 30.5695214 48.9058485 39.2624871 55.9295312 0 57.3967708 50.7240795 64.9706684 24.4377385 67.7790299 29.809892 109.349963 29.809892 113.52125 20.1909142 122.739807 47.0931709 127.92089 4.89909611 131.305117 28.6790024 133.993774 24.4377385 143.722359 57.5154055 147.12326 16.4428105 149.60628 29.809892 204.976619 29.809892"></polyline>
                <polyline id="路径-2" stroke="#1CCF23" stroke-width="0.875" points="0 25.876586 3.58387804 47.0931709 5.6145855 29.809892 11.7105556 29.809892 16.1952127 6.5599299 22.9016775 52.89561 29.6273806 29.809892 37.0601975 29.809892 38.7245226 24.4377385 42.2771918 37.3753899 44.4998546 30.5695214 48.9058485 39.2624871 55.9295312 0 57.3967708 50.7240795 64.9706684 24.4377385 67.7790299 29.809892 109.349963 29.809892 113.52125 20.1909142 122.739807 47.0931709 127.92089 4.89909611 131.305117 28.6790024 133.993774 24.4377385 143.722359 57.5154055 147.12326 16.4428105 149.60628 29.809892 204.976619 29.809892"></polyline>
            </g>
            <polygon id="路径" fill="#3F48CC" transform="translate(197.000000, 113.000000) rotate(-360.000000) translate(-197.000000, -113.000000) " points="3.50222222 3.50387597 3.50222222 222.496124 390.497778 3.50387597"></polygon>
            <g id="Line" transform="translate(21.013333, 28.031008)" stroke="#FFFFFF" stroke-linecap="square" stroke-width="7">
                <path d="M0.875555556,0.875968992 L287.182222,0.875968992" id="直线"></path>
                <path d="M0.875555556,16.6434109 L267.92,16.6434109" id="直线"></path>
                <path d="M0.875555556,32.4108527 L218.888889,32.4108527" id="直线"></path>
                <path d="M0.875555556,48.1782946 L70.0444444,48.1782946" id="直线"></path>
                <path d="M0.875555556,77.9612403 L154.097778,77.9612403" id="直线"></path>
                <path d="M0.875555556,95.4806202 L70.0444444,95.4806202" id="直线"></path>
            </g>
        </g>
        <g id="QRCode" filter="url(#filter-12)" transform="translate(17.000000, 750.000000)">
            <rect id="矩形" fill="#FFFFFF" x="0" y="0" width="310" height="72" rx="4"></rect>
            <text id="996.ICU" font-family="Roboto-Medium, Roboto" font-size="24" font-weight="400" fill="#000000">
                <tspan x="76.1445312" y="36">996.ICU</tspan>
            </text>
            <text id="Developers’-lives-ma" font-family="Roboto-Regular, Roboto" font-size="16" font-weight="normal" line-spacing="24" letter-spacing="0.150000006" fill="#9E9E9E">
                <tspan x="76" y="53">Developers’ lives matters.</tspan>
            </text>
            <path d="M9.93103448,11.1724138 L27.3103448,11.1724138 M29.7931034,11.1724138 L32.2758621,11.1724138 M34.7586207,11.1724138 L37.2413793,11.1724138 M44.6896552,11.1724138 L62.0689655,11.1724138 M9.93103448,13.6551724 L12.4137931,13.6551724 M24.8275862,13.6551724 L27.3103448,13.6551724 M37.2413793,13.6551724 L42.2068966,13.6551724 M44.6896552,13.6551724 L47.1724138,13.6551724 M59.5862069,13.6551724 L62.0689655,13.6551724 M9.93103448,16.137931 L12.4137931,16.137931 M14.8965517,16.137931 L22.3448276,16.137931 M24.8275862,16.137931 L27.3103448,16.137931 M29.7931034,16.137931 L39.7241379,16.137931 M44.6896552,16.137931 L47.1724138,16.137931 M49.6551724,16.137931 L57.1034483,16.137931 M59.5862069,16.137931 L62.0689655,16.137931 M9.93103448,18.6206897 L12.4137931,18.6206897 M14.8965517,18.6206897 L22.3448276,18.6206897 M24.8275862,18.6206897 L27.3103448,18.6206897 M32.2758621,18.6206897 L42.2068966,18.6206897 M44.6896552,18.6206897 L47.1724138,18.6206897 M49.6551724,18.6206897 L57.1034483,18.6206897 M59.5862069,18.6206897 L62.0689655,18.6206897 M9.93103448,21.1034483 L12.4137931,21.1034483 M14.8965517,21.1034483 L22.3448276,21.1034483 M24.8275862,21.1034483 L27.3103448,21.1034483 M32.2758621,21.1034483 L34.7586207,21.1034483 M37.2413793,21.1034483 L42.2068966,21.1034483 M44.6896552,21.1034483 L47.1724138,21.1034483 M49.6551724,21.1034483 L57.1034483,21.1034483 M59.5862069,21.1034483 L62.0689655,21.1034483 M9.93103448,23.5862069 L12.4137931,23.5862069 M24.8275862,23.5862069 L27.3103448,23.5862069 M29.7931034,23.5862069 L37.2413793,23.5862069 M44.6896552,23.5862069 L47.1724138,23.5862069 M59.5862069,23.5862069 L62.0689655,23.5862069 M9.93103448,26.0689655 L27.3103448,26.0689655 M29.7931034,26.0689655 L32.2758621,26.0689655 M34.7586207,26.0689655 L37.2413793,26.0689655 M39.7241379,26.0689655 L42.2068966,26.0689655 M44.6896552,26.0689655 L62.0689655,26.0689655 M34.7586207,28.5517241 L37.2413793,28.5517241 M9.93103448,31.0344828 L12.4137931,31.0344828 M14.8965517,31.0344828 L17.3793103,31.0344828 M24.8275862,31.0344828 L29.7931034,31.0344828 M34.7586207,31.0344828 L42.2068966,31.0344828 M47.1724138,31.0344828 L49.6551724,31.0344828 M54.6206897,31.0344828 L57.1034483,31.0344828 M59.5862069,31.0344828 L62.0689655,31.0344828 M17.3793103,33.5172414 L19.862069,33.5172414 M32.2758621,33.5172414 L37.2413793,33.5172414 M39.7241379,33.5172414 L44.6896552,33.5172414 M49.6551724,33.5172414 L54.6206897,33.5172414 M57.1034483,33.5172414 L62.0689655,33.5172414 M12.4137931,36 L14.8965517,36 M17.3793103,36 L29.7931034,36 M32.2758621,36 L34.7586207,36 M37.2413793,36 L39.7241379,36 M52.137931,36 L57.1034483,36 M59.5862069,36 L62.0689655,36 M12.4137931,38.4827586 L14.8965517,38.4827586 M27.3103448,38.4827586 L34.7586207,38.4827586 M37.2413793,38.4827586 L54.6206897,38.4827586 M12.4137931,40.9655172 L14.8965517,40.9655172 M17.3793103,40.9655172 L27.3103448,40.9655172 M32.2758621,40.9655172 L42.2068966,40.9655172 M49.6551724,40.9655172 L52.137931,40.9655172 M57.1034483,40.9655172 L59.5862069,40.9655172 M29.7931034,43.4482759 L32.2758621,43.4482759 M34.7586207,43.4482759 L37.2413793,43.4482759 M39.7241379,43.4482759 L42.2068966,43.4482759 M47.1724138,43.4482759 L49.6551724,43.4482759 M52.137931,43.4482759 L54.6206897,43.4482759 M59.5862069,43.4482759 L62.0689655,43.4482759 M9.93103448,45.9310345 L27.3103448,45.9310345 M29.7931034,45.9310345 L32.2758621,45.9310345 M34.7586207,45.9310345 L42.2068966,45.9310345 M49.6551724,45.9310345 L57.1034483,45.9310345 M59.5862069,45.9310345 L62.0689655,45.9310345 M9.93103448,48.4137931 L12.4137931,48.4137931 M24.8275862,48.4137931 L27.3103448,48.4137931 M32.2758621,48.4137931 L34.7586207,48.4137931 M39.7241379,48.4137931 L42.2068966,48.4137931 M52.137931,48.4137931 L54.6206897,48.4137931 M57.1034483,48.4137931 L59.5862069,48.4137931 M9.93103448,50.8965517 L12.4137931,50.8965517 M14.8965517,50.8965517 L22.3448276,50.8965517 M24.8275862,50.8965517 L27.3103448,50.8965517 M32.2758621,50.8965517 L39.7241379,50.8965517 M42.2068966,50.8965517 L52.137931,50.8965517 M59.5862069,50.8965517 L62.0689655,50.8965517 M9.93103448,53.3793103 L12.4137931,53.3793103 M14.8965517,53.3793103 L22.3448276,53.3793103 M24.8275862,53.3793103 L27.3103448,53.3793103 M32.2758621,53.3793103 L34.7586207,53.3793103 M37.2413793,53.3793103 L44.6896552,53.3793103 M49.6551724,53.3793103 L52.137931,53.3793103 M9.93103448,55.862069 L12.4137931,55.862069 M14.8965517,55.862069 L22.3448276,55.862069 M24.8275862,55.862069 L27.3103448,55.862069 M29.7931034,55.862069 L32.2758621,55.862069 M34.7586207,55.862069 L39.7241379,55.862069 M42.2068966,55.862069 L44.6896552,55.862069 M47.1724138,55.862069 L62.0689655,55.862069 M9.93103448,58.3448276 L12.4137931,58.3448276 M24.8275862,58.3448276 L27.3103448,58.3448276 M32.2758621,58.3448276 L34.7586207,58.3448276 M37.2413793,58.3448276 L44.6896552,58.3448276 M47.1724138,58.3448276 L54.6206897,58.3448276 M9.93103448,60.8275862 L27.3103448,60.8275862 M29.7931034,60.8275862 L32.2758621,60.8275862 M42.2068966,60.8275862 L44.6896552,60.8275862 M47.1724138,60.8275862 L52.137931,60.8275862 M59.5862069,60.8275862 L62.0689655,60.8275862" id="形状" stroke="#DE325E" stroke-width="2.48275862" fill="#000000" fill-rule="nonzero"></path>
        </g>
        <text id="Designed-by-@Zhai233" font-family="Roboto-Medium, Roboto" font-size="16" font-weight="400" fill="#FFFFFF" fill-opacity="0.76">
            <tspan x="402.203125" y="818">Designed by @Zhai2333</tspan>
        </text>
    </g>
</svg>